<svg xmlns="http://www.w3.org/2000/svg" width="512" height="512" viewBox="0 0 512 512"><path d="M256 32c123.5 0 224 100.5 224 224S379.5 480 256 480 32 379.5 32 256 132.5 32 256 32m0-32C114.625 0 0 114.625 0 256s114.625 256 256 256 256-114.625 256-256S397.375 0 256 0zm142.72 341.594l-1.44-4.375c-3.374-10.063-14.5-20.563-24.75-23.376L334.69 303.5c-10.25-2.78-24.875.97-32.405 8.5l-13.688 13.688c-49.75-13.47-88.78-52.5-102.22-102.25l13.69-13.688c7.5-7.5 11.25-22.125 8.468-32.406L198.22 139.5c-2.782-10.25-13.345-21.375-23.407-24.75l-4.313-1.438c-10.094-3.375-24.5.03-32 7.563l-20.5 20.5c-3.656 3.625-6 14.03-6 14.063-.688 65.063 24.813 127.72 70.813 173.75 45.875 45.875 108.313 71.345 173.156 70.78.343 0 11.062-2.28 14.718-5.937l20.5-20.5c7.5-7.468 10.874-21.874 7.53-31.936z" fill="#FFF"/></svg>